<svg height="33" viewBox="0 0 139 33" width="139" xmlns="http://www.w3.org/2000/svg"><path d="m6.12 13.464c4.644 0 7.272-2.43 7.272-6.192v-6.84h-5.04v6.444c0 1.602-.594 2.7-2.34 2.7-1.152 0-1.98-.468-2.826-1.44l-3.186 2.88c1.386 1.548 3.312 2.448 6.12 2.448zm12.2175-.432.882-1.98h5.724l.882 1.98h5.292l-6.264-12.6h-5.472l-6.264 12.6zm5.238-5.04h-2.988l1.494-3.348zm15.0075 5.472c3.564 0 6.318-1.44 7.434-3.42l-4.05-2.142c-.774 1.188-1.908 1.71-3.276 1.71-1.908 0-3.204-1.08-3.204-2.88s1.296-2.88 3.204-2.88c1.368 0 2.466.558 3.204 1.674l4.05-2.142c-1.08-1.908-3.798-3.384-7.182-3.384-4.968 0-8.388 2.394-8.388 6.732s3.42 6.732 8.208 6.732zm13.6035-.432v-2.574l1.926-1.89 3.114 4.464h5.832l-5.454-7.506 5.166-5.094h-5.976l-4.608 4.878v-4.878h-5.04v12.6zm-15.4305 18 2.268-7.47 2.268 7.47h4.896l4.572-12.6h-4.932l-2.16 7.524-2.394-7.524h-4.428l-2.394 7.524-2.16-7.524h-5.004l4.572 12.6zm17.5095 0 .882-1.98h5.724l.882 1.98h5.292l-6.264-12.6h-5.472l-6.264 12.6zm5.238-5.04h-2.988l1.494-3.348zm15.2955 5.04v-8.91h4.752v-3.69h-14.544v3.69h4.752v8.91zm11.0475 0v-2.574l1.926-1.89 3.114 4.464h5.832l-5.454-7.506 5.166-5.094h-5.976l-4.608 4.878v-4.878h-5.04v12.6zm16.6095 0v-12.6h-5.04v12.6zm6.9795 0v-6.858l6.552 6.858h4.428v-12.6h-4.86v6.066l-5.652-6.066h-5.328v12.6zm20.6235.432c4.734 0 7.2-1.8 7.2-4.608 0-3.078-3.06-3.87-7.362-4.23-1.818-.144-2.682-.27-2.682-.684 0-.486 1.224-.594 2.322-.594 1.818 0 3.456.342 4.914 1.224l2.286-2.79c-1.908-1.188-4.608-1.782-7.218-1.782-4.176 0-7.254 1.548-7.254 4.374 0 2.952 3.474 3.87 7.452 4.212 2.106.18 2.592.378 2.592.81 0 .45-.702.666-2.178.666-2.43 0-4.626-.756-6.03-1.71l-2.412 2.772c2.088 1.494 5.04 2.34 8.37 2.34z" fill="#0b0c0d" transform="translate(.676 .968)"/></svg>